<?xml version="1.0" encoding="UTF-8"?>
<svg id="Layer_2" data-name="Layer 2" xmlns="http://www.w3.org/2000/svg" xmlns:xlink="http://www.w3.org/1999/xlink" viewBox="0 0 43.32 78.27">
  <defs>
    <style>
      .cls-1 {
        clip-path: url(#clippath);
      }

      .cls-2, .cls-3, .cls-4, .cls-5, .cls-6, .cls-7, .cls-8, .cls-9 {
        fill: none;
      }

      .cls-2, .cls-10 {
        stroke-width: 0px;
      }

      .cls-3, .cls-4, .cls-5, .cls-6, .cls-7, .cls-8, .cls-9 {
        stroke: #231f20;
      }

      .cls-3, .cls-4, .cls-7, .cls-8, .cls-9 {
        stroke-miterlimit: 10;
      }

      .cls-10 {
        fill: #ffe8ca;
      }

      .cls-4, .cls-6 {
        stroke-width: 1.45px;
      }

      .cls-5 {
        stroke-width: 1.2px;
      }

      .cls-5, .cls-6 {
        stroke-linecap: round;
        stroke-linejoin: round;
      }

      .cls-11 {
        clip-path: url(#clippath-1);
      }

      .cls-12 {
        clip-path: url(#clippath-3);
      }

      .cls-13 {
        clip-path: url(#clippath-2);
      }

      .cls-7 {
        stroke-width: 1.07px;
      }

      .cls-8 {
        stroke-width: .88px;
      }

      .cls-9 {
        stroke-width: .87px;
      }
    </style>
    <clipPath id="clippath">
      <rect class="cls-2" width="43.32" height="78.27"/>
    </clipPath>
    <clipPath id="clippath-1">
      <rect class="cls-2" y="0" width="43.32" height="78.27"/>
    </clipPath>
    <clipPath id="clippath-2">
      <rect class="cls-2" x=".72" y=".44" width="41.87" height="77.11"/>
    </clipPath>
    <clipPath id="clippath-3">
      <rect class="cls-2" x=".72" y=".44" width="41.87" height="77.11"/>
    </clipPath>
  </defs>
  <g id="Layer_1-2" data-name="Layer 1">
    <g id="bishop-white">
      <g class="cls-1">
        <g class="cls-11">
          <g class="cls-13">
            <g class="cls-12">
              <path class="cls-10" d="M39.89,71.57c-.37-.15-.8-.3-1.28-.45.12-.07.22-.14.31-.22.28.21.62.44.97.67"/>
              <path class="cls-10" d="M23.21,2c0,.87-.7,1.57-1.56,1.57s-1.56-.7-1.56-1.57.7-1.56,1.56-1.56,1.56.7,1.56,1.56"/>
              <path class="cls-10" d="M20.88,3.69c.16-.07.33-.11.5-.11h.45c.16,0,.34.04.49.11.92.43,1.69.87,2.33,1.3,2.11,1.42,3.25,3.83,3.14,6.37-.17,3.94-1.81,7.9-4.44,11.02-.2.23-.4.4-.93,1.03-.09.1-.16.2-.23.28-.02.02-.04.04-.06.06h-1.06s-.07-.07-.11-.11c-.01,0-.02-.02-.03-.04-.04-.05-.09-.12-.15-.18-.52-.63-.73-.8-.93-1.03-2.58-3.07-4.21-6.95-4.42-10.82-.15-2.67,1.06-5.23,3.29-6.69.61-.4,1.32-.79,2.16-1.19"/>
              <path class="cls-10" d="M22.13,23.75s.04-.04.06-.06c-.27.33-.4.48-.59.48-.2,0-.33-.16-.64-.53.04.04.07.07.11.11h1.06Z"/>
              <path class="cls-10" d="M19.66,22.24c.4.48.82.93,1.27,1.36.01.02.02.03.03.04.31.37.44.53.64.53s.32-.15.59-.48c.47-.46.93-.95,1.35-1.46,3.51.16,6.11.71,6.11,1.38,0,.3-.54.58-1.47.82-1.45.36-3.84.59-6.54.59-2.44,0-4.63-.19-6.1-.49-1.19-.25-1.91-.57-1.91-.92,0-.67,2.56-1.22,6.03-1.37"/>
              <path class="cls-10" d="M15.54,24.53c1.47.3,3.66.49,6.1.49,2.7,0,5.09-.23,6.54-.59l.02.11c-.52,6.6-.41,16.33,2.98,27.33,1.6,5.17,3.26,10.84,5.21,14.56-1.51.41-3.51.89-5.88,1.29-2.23.38-4.92.82-8.48.87-.75,0-4.3.03-8.95-.76-2.82-.48-5.19-1.12-7.01-1.69.02-.03.05-.08.07-.12.15-.24.34-.57.47-.77h.01c2.33-3.58,5.32-8.63,7.13-14.64,3.27-10.86,2.58-20.29,1.73-25.76l.06-.32Z"/>
              <path class="cls-10" d="M6.61,65.25c-.13.2-.32.53-.47.77-.03-.06-.05-.12-.05-.18,0-.21.18-.4.52-.59"/>
              <path class="cls-10" d="M6.07,66.14c1.82.57,4.19,1.21,7.01,1.69,4.65.79,8.2.77,8.95.76,3.56-.05,6.25-.49,8.48-.87,2.37-.4,4.37-.88,5.88-1.29,0,.02,0,.04.03.06.01.04.03.07.06.11-.04.4.08,1.09.57,2.07.41.83,1.01,1.34,1.44,1.63-.07.1-.29.02.32.51.03.03.07.06.11.09-.09.08-.19.15-.31.22-.04.03-.08.05-.12.07-.39.21-.74.27-.98.3-4.11.98-9.51,1.86-15.86,1.88-6.34,0-11.73-.84-15.85-1.8-.22-.04-.57-.14-.92-.38-.22-.14-.38-.3-.49-.43l-.14-.04s.01-.04.02-.06l.31-.21c.2-.21.44-.51.66-.89h.01c.13-.24.27-.5.39-.79.42-1.04.44-1.98.41-2.51v-.1s.01-.01.02-.02"/>
              <path class="cls-10" d="M5.8,71.57c4.12.96,9.51,1.81,15.85,1.8,6.35-.02,11.75-.9,15.86-1.88.24-.03.59-.09.98-.3.04-.02.08-.04.12-.07.48.15.91.3,1.28.45,2.21.83,2.72,1.49,2.7,1.97-.06,2.22-11.42,4.07-21.04,4.01-9.94-.07-20.85-2.17-20.83-4.01,0-.66,1.43-1.2,2.91-1.6h0c.33-.47.52-.92.61-1.22l.14.04c.11.13.27.29.49.43.35.24.7.34.92.38"/>
            </g>
          </g>
          <path class="cls-6" d="M4.39,70.76c.11.13.27.29.49.43.35.24.7.34.92.38,4.12.96,9.51,1.81,15.85,1.8,6.35-.02,11.75-.9,15.86-1.88.24-.03.59-.09.98-.3.04-.02.08-.04.12-.07.12-.07.22-.14.31-.22.04-.03.08-.06.11-.09"/>
          <path class="cls-4" d="M38.49,71.08s.08.03.12.04c.48.15.91.3,1.28.45,2.21.83,2.72,1.49,2.7,1.97-.06,2.22-11.42,4.07-21.04,4.01-9.94-.07-20.85-2.17-20.83-4.01.01-.66,1.43-1.2,2.91-1.6"/>
          <path class="cls-5" d="M6.07,66.14c1.82.57,4.19,1.21,7.01,1.69,4.65.79,8.2.77,8.95.76,3.56-.05,6.25-.49,8.48-.87,2.37-.4,4.37-.88,5.88-1.29.03,0,.06-.01.09-.02"/>
          <path class="cls-7" d="M36.61,66.37c-.05.04-.11.08-.19.12h0"/>
          <path class="cls-7" d="M6.14,66.02c-.03-.06-.05-.12-.05-.18,0-.21.18-.4.52-.59h0"/>
          <path class="cls-7" d="M15.48,24.85c.85,5.47,1.54,14.9-1.73,25.76-1.81,6.01-4.8,11.06-7.13,14.63"/>
          <path class="cls-7" d="M6.61,65.25c-.13.2-.32.53-.47.77-.02.04-.05.09-.07.12,0,.01-.02.01-.02.02"/>
          <path class="cls-7" d="M36.63,66.89c-.05-.1-.11-.19-.15-.29-.03-.04-.05-.07-.06-.11-.02-.02-.03-.04-.03-.06-1.95-3.72-3.61-9.39-5.21-14.56-3.39-11-3.5-20.73-2.98-27.33"/>
          <path class="cls-7" d="M20.96,23.64s.07.07.11.11h1.06s.04-.04.06-.06c.47-.46.93-.95,1.35-1.46,3.51.16,6.11.71,6.11,1.38,0,.3-.54.58-1.47.82-1.45.36-3.84.59-6.54.59-2.44,0-4.63-.19-6.1-.49-1.19-.25-1.91-.57-1.91-.92,0-.67,2.56-1.22,6.03-1.37.4.48.82.93,1.27,1.36"/>
          <path class="cls-8" d="M20.93,23.6s-.09-.12-.15-.18c-.52-.63-.73-.8-.93-1.03-2.58-3.07-4.21-6.95-4.42-10.82-.15-2.67,1.06-5.23,3.29-6.69.61-.4,1.32-.79,2.16-1.19.16-.07.33-.11.5-.11h.45c.16,0,.34.04.49.11.92.43,1.69.87,2.33,1.3,2.11,1.42,3.25,3.83,3.14,6.37-.17,3.94-1.81,7.9-4.44,11.02-.2.23-.4.4-.93,1.03-.09.1-.16.2-.23.28-.27.33-.4.48-.59.48-.2,0-.33-.16-.64-.53-.01,0-.02-.02-.03-.04Z"/>
          <path class="cls-9" d="M23.21,2c0,.87-.7,1.57-1.56,1.57s-1.56-.7-1.56-1.57.7-1.56,1.56-1.56,1.56.7,1.56,1.56Z"/>
          <path class="cls-7" d="M.92,73.7c.41-.09,1.43-.35,2.31-1.26.15-.16.29-.33.41-.49.33-.48.52-.93.61-1.23.01-.02.01-.04.02-.06"/>
          <path class="cls-3" d="M41.72,72.53c-.18,0-1.02-.45-1.83-.96-.35-.23-.69-.46-.97-.67-.04-.03-.08-.06-.11-.09-.61-.49-.39-.41-.32-.51.02-.03.02-.06.01-.11"/>
          <path class="cls-7" d="M36.48,66.52s-.01.05,0,.08c-.04.4.08,1.09.57,2.07.41.83,1.01,1.34,1.44,1.63.19.13.34.21.44.26"/>
          <path class="cls-7" d="M5.24,69.56c-.22.38-.46.68-.66.89"/>
          <path class="cls-7" d="M6.05,66.26c.03.53,0,1.47-.41,2.51-.12.29-.26.55-.39.78"/>
        </g>
      </g>
    </g>
  </g>
</svg>