<?xml version="1.0" encoding="UTF-8"?>
<svg id="Layer_2" data-name="Layer 2" xmlns="http://www.w3.org/2000/svg" xmlns:xlink="http://www.w3.org/1999/xlink" viewBox="0 0 42.45 88.06">
  <defs>
    <style>
      .cls-1 {
        clip-path: url(#clippath);
      }

      .cls-2, .cls-3, .cls-4, .cls-5, .cls-6, .cls-7, .cls-8, .cls-9, .cls-10, .cls-11, .cls-12, .cls-13 {
        fill: none;
      }

      .cls-2, .cls-14 {
        stroke-width: 0px;
      }

      .cls-3, .cls-4, .cls-5, .cls-7, .cls-8, .cls-9, .cls-11, .cls-12, .cls-13 {
        stroke: #231f20;
      }

      .cls-3, .cls-7, .cls-10, .cls-12 {
        stroke-miterlimit: 10;
      }

      .cls-14 {
        fill: #ffe8ca;
      }

      .cls-4 {
        stroke-width: 1.2px;
      }

      .cls-4, .cls-5, .cls-6, .cls-8, .cls-9, .cls-11, .cls-13 {
        stroke-linecap: round;
        stroke-linejoin: round;
      }

      .cls-5, .cls-7 {
        stroke-width: 1.21px;
      }

      .cls-6, .cls-10 {
        stroke: #000;
        stroke-width: .5px;
      }

      .cls-15 {
        clip-path: url(#clippath-1);
      }

      .cls-16 {
        clip-path: url(#clippath-3);
      }

      .cls-17 {
        clip-path: url(#clippath-2);
      }

      .cls-8 {
        stroke-width: .75px;
      }

      .cls-9 {
        stroke-width: 1.45px;
      }

      .cls-12, .cls-13 {
        stroke-width: 1.07px;
      }
    </style>
    <clipPath id="clippath">
      <rect class="cls-2" width="42.45" height="88.06"/>
    </clipPath>
    <clipPath id="clippath-1">
      <rect class="cls-2" y="0" width="42.45" height="88.06"/>
    </clipPath>
    <clipPath id="clippath-2">
      <rect class="cls-2" x=".72" y=".25" width="41" height="87.08"/>
    </clipPath>
    <clipPath id="clippath-3">
      <rect class="cls-2" x=".72" y=".25" width="41" height="87.08"/>
    </clipPath>
  </defs>
  <g id="Layer_1-2" data-name="Layer 1">
    <g id="king-white">
      <g class="cls-1">
        <g class="cls-15">
          <g class="cls-17">
            <g class="cls-16">
              <path class="cls-14" d="M37.75,81.57c1.2.27,3.97,1.91,3.97,2.5,0,1.72-9.88,3.31-20.69,3.26-11.56-.06-20.31-1.48-20.31-3.21,0-.59,1.47-1.9,3.1-2.5l.16-.49c2.87.9,11.05,2.07,17.97,2.07s12.8-1.07,15.71-1.95l.09.32Z"/>
              <path class="cls-14" d="M35.64,77.4c.02.08-.06-.05.05.2h.1c-.02.34.12.67.63,1.72.47.97,1.21,1.5,1.64,1.75l-.03.06c-.12.04-.24.08-.37.12-2.91.88-8.97,1.95-15.71,1.95s-15.1-1.17-17.97-2.07c-.01,0-.02,0-.03,0v-.02c.2-.21.53-.66.75-1.03.11-.2.22-.41.31-.65.37-.88.6-1.9.64-2.51,1.88.49,4.29,1.02,7.13,1.4,3.62.49,6.41.52,8.3.54,1.1,0,4.27.02,8.42-.38,2.45-.23,4.48-.77,6.14-1.07"/>
              <path class="cls-14" d="M15.06,29.31c1.36.1,3.56.2,6.34.2,2.09,0,4.17-.06,6.02-.18h.02v.38c-.17,8.09.32,18.19,2.98,29.32,1.55,6.45,3.28,13.43,5.16,18.2h0c.03.1.05.14.06.17-1.66.3-3.69.84-6.14,1.07-4.15.4-7.32.39-8.42.38-1.89-.02-4.68-.05-8.3-.54-2.84-.38-5.25-.91-7.13-1.4.01-.07.01-.13.01-.18h0c2.31-4.61,4.81-11.93,6.6-19.57,2.51-10.71,3.06-20.24,2.8-27.45v-.4Z"/>
              <path class="cls-14" d="M31.35,10.49c-.65,2.72-.9,3.64-1.55,6.35-.68,2.37-1.31,6.17-2.39,6.63-.07.03-.14.05-.22.05h-12.05c-.14-.02-.26-.07-.37-.15-1.12-.81-1.37-4.6-2.48-7.26l-1.63-5.94c2.55-.66,6.51-.94,10.51-.98,4.39,0,7.48.61,10.18,1.3"/>
              <path class="cls-14" d="M27.44,28.34c0-.28.02-.54.03-.81,1.73.12,2.85.27,3.54.41-.64.12-1.72.27-3.57.4"/>
              <path class="cls-14" d="M27.48,27.24c0,.09-.01.19-.01.29h-.01l.02-.29Z"/>
              <path class="cls-14" d="M15.01,28.32c-1.63-.13-2.61-.27-3.2-.39.63-.12,1.64-.26,3.16-.37h.01c-.08-1.38-.22-2.88-.35-3.98l.14-.21c.11.08.23.13.37.15h12.05c.08,0,.15-.02.22-.05h.24c-.05,1-.15,2.79-.19,4.06h.01c-.01.27-.02.53-.03.81h-.04c-1.84.11-3.92.17-6,.17-2.8,0-4.99-.1-6.33-.19h-.06Z"/>
              <path class="cls-14" d="M21.46,7.8c-.03.21-.22.35-.43.32-.17-.02-.3-.16-.32-.32-.04-.29-.08-.59-.12-.88-.08-.79-.14-1.59-.18-2.38-2.33-.02-4.38-.25-3.24-1.02.21-.09,1.59-.2,3.19-.24-.03-1.4.06-3.77,1.1-2.81.36.9.41,1.84.37,2.78,2.43,0,4.67.22,3.49,1.02-.22.09-1.82.22-3.57.25-.04.48-.08.97-.09,1.45-.02.31-.05.63-.08.94-.04.3-.08.59-.12.89"/>
              <path class="cls-14" d="M21.03,8.12c.21.03.4-.11.43-.32.04-.3.08-.59.12-.89,1.5.07,2.65.51,2.65,1.05,0,.58-1.38,1.06-3.09,1.06s-3.1-.48-3.1-1.06c0-.53,1.1-.96,2.55-1.04.04.29.08.59.12.88.02.16.15.3.32.32"/>
              <path class="cls-14" d="M27.42,29.33c-1.85.12-3.93.18-6.02.18-2.78,0-4.98-.1-6.34-.2h-.06c-4.96-.36-4.96-.92-4.96-1.38,0-.43,0-1.02,4.86-1.36l.07.99c-1.52.11-2.53.25-3.16.37.59.12,1.57.26,3.2.39h.06c1.34.09,3.53.19,6.33.19,2.08,0,4.16-.06,6-.17h.04c1.85-.13,2.93-.28,3.57-.4-.69-.14-1.81-.29-3.54-.41,0-.1.01-.2.01-.29v-.21s.05-.49.05-.49c5.23.34,5.23.95,5.23,1.39s0,1.06-5.3,1.4h-.04Z"/>
            </g>
          </g>
          <path class="cls-9" d="M3.82,81.08s.08.03.13.04c0,0,.02,0,.03,0,2.87.9,11.05,2.07,17.97,2.07s12.8-1.07,15.71-1.95c.13-.04.25-.08.37-.12"/>
          <path class="cls-9" d="M37.75,81.57c1.2.27,3.97,1.91,3.97,2.5,0,1.72-9.88,3.31-20.69,3.26-11.56-.06-20.31-1.48-20.31-3.21,0-.59,1.47-1.9,3.1-2.5"/>
          <path class="cls-4" d="M5.39,76.84c.09.02.17.05.26.07,1.88.49,4.29,1.02,7.13,1.4,3.62.49,6.41.52,8.3.54,1.1.01,4.27.02,8.42-.38,2.45-.23,4.48-.77,6.14-1.07.07-.02.13-.03.19-.04"/>
          <path class="cls-12" d="M35.99,77.02c-.06.04-.13.08-.2.12"/>
          <path class="cls-11" d="M5.66,76.72c2.31-4.6,4.81-11.92,6.6-19.56,2.51-10.71,3.06-20.24,2.8-27.45"/>
          <path class="cls-11" d="M5.59,76.88s.02-.05.03-.07c.01-.03.03-.05.04-.08"/>
          <path class="cls-11" d="M15,27.87c-.01-.1-.01-.2-.02-.31-.08-1.38-.22-2.88-.35-3.98"/>
          <path class="cls-7" d="M27.47,27.53c-.01.27-.02.53-.03.81"/>
          <path class="cls-3" d="M27.65,23.47c-.05,1-.15,2.79-.19,4.06-.01.14-.02.27-.02.39"/>
          <path class="cls-11" d="M27.44,29.71c-.17,8.09.32,18.19,2.98,29.32,1.55,6.45,3.28,13.43,5.16,18.2h0c.03.1.05.14.06.17.02.08-.06-.05.05.2"/>
          <line class="cls-5" x1="27.66" y1="23.46" x2="27.66" y2="23.36"/>
          <path class="cls-13" d="M35.8,77.5s-.01.07-.01.11c-.02.33.12.66.63,1.71.47.97,1.21,1.5,1.64,1.75.1.06.19.1.25.13"/>
          <path class="cls-12" d="M4.7,80.07c-.22.37-.55.82-.74,1.03"/>
          <path class="cls-12" d="M5.66,76.63v.09h0c0,.06,0,.12-.01.19-.04.61-.27,1.63-.64,2.51-.09.24-.2.45-.31.65-.02.04-.05.09-.07.13"/>
          <path class="cls-6" d="M27.48,27.24v-.21s.05-.49.05-.49c5.23.34,5.23.95,5.23,1.39s0,1.06-5.3,1.4h-.04c-1.85.12-3.93.18-6.02.18-2.78,0-4.98-.1-6.34-.2h-.06c-4.96-.36-4.96-.92-4.96-1.38,0-.43,0-1.02,4.86-1.36l.07.99c-1.52.11-2.53.25-3.16.37.59.12,1.57.26,3.2.39h.06c1.34.09,3.53.19,6.33.19,2.08,0,4.16-.06,6-.17h.04c1.85-.13,2.93-.28,3.57-.4-.69-.14-1.81-.29-3.54-.41"/>
          <path class="cls-6" d="M27.48,27.24c0,.09-.01.19-.01.29h-.01l.02-.29Z"/>
          <path class="cls-11" d="M27.41,23.47c-.07.03-.14.05-.22.05h-12.05c-.14-.02-.26-.07-.37-.15-1.12-.81-1.37-4.6-2.48-7.26l-1.63-5.94c2.55-.66,6.51-.94,10.51-.98,4.39,0,7.48.61,10.18,1.3-.65,2.72-.9,3.64-1.55,6.35-.68,2.37-1.31,6.17-2.39,6.63Z"/>
          <path class="cls-8" d="M21.58,6.91c1.5.07,2.65.51,2.65,1.05,0,.58-1.38,1.06-3.09,1.06s-3.1-.48-3.1-1.06c0-.53,1.1-.96,2.55-1.04"/>
          <path class="cls-10" d="M20.59,6.92c-.08-.79-.14-1.59-.18-2.38-2.33-.02-4.38-.25-3.24-1.02.21-.09,1.59-.2,3.19-.24-.03-1.4.06-3.77,1.1-2.81.36.9.41,1.84.37,2.78,2.43,0,4.67.22,3.49,1.02-.22.09-1.82.22-3.57.25-.04.48-.08.97-.09,1.45-.02.31-.05.63-.08.94-.04.3-.08.59-.12.89-.03.21-.22.35-.43.32-.17-.02-.3-.16-.32-.32-.04-.29-.08-.59-.12-.88Z"/>
        </g>
      </g>
    </g>
  </g>
</svg>