<?xml version="1.0" encoding="UTF-8"?>
<svg id="Layer_2" data-name="Layer 2" xmlns="http://www.w3.org/2000/svg" xmlns:xlink="http://www.w3.org/1999/xlink" viewBox="0 0 43.26 66.44">
  <defs>
    <style>
      .cls-1 {
        stroke-width: .5px;
      }

      .cls-1, .cls-2, .cls-3, .cls-4 {
        fill: none;
      }

      .cls-1, .cls-3, .cls-4 {
        stroke: #231f20;
      }

      .cls-1, .cls-4 {
        stroke-linecap: round;
        stroke-linejoin: round;
      }

      .cls-5 {
        clip-path: url(#clippath);
      }

      .cls-2, .cls-6, .cls-7 {
        stroke-width: 0px;
      }

      .cls-8 {
        clip-path: url(#clippath-1);
      }

      .cls-9 {
        clip-path: url(#clippath-3);
      }

      .cls-10 {
        clip-path: url(#clippath-2);
      }

      .cls-6 {
        fill: #000;
      }

      .cls-7 {
        fill: #b3d9ff;
      }

      .cls-3 {
        stroke-miterlimit: 10;
      }

      .cls-3, .cls-4 {
        stroke-width: 1.5px;
      }
    </style>
    <clipPath id="clippath">
      <rect class="cls-2" width="43.26" height="66.44"/>
    </clipPath>
    <clipPath id="clippath-1">
      <rect class="cls-2" y="0" width="43.26" height="66.44"/>
    </clipPath>
    <clipPath id="clippath-2">
      <rect class="cls-2" x=".75" y=".75" width="41.76" height="64.94"/>
    </clipPath>
    <clipPath id="clippath-3">
      <rect class="cls-2" x=".75" y=".75" width="41.76" height="64.94"/>
    </clipPath>
  </defs>
  <g id="Layer_1-2" data-name="Layer 1">
    <g id="knight-black">
      <g class="cls-5">
        <g class="cls-8">
          <g class="cls-10">
            <g class="cls-9">
              <path class="cls-7" d="M23.66,61.78c3.97,0,13.92-.39,16.16-1.63.13-.06.23-.14.3-.21.17.29.84,1.34,1.3,1.68.24.18.49.35.74.51.5.33.46,1.09-.09,1.33-2.91,1.31-10.15,2.23-18.62,2.23-9.35,0-16.6-1.34-18.68-2.9-.26-.19-.26-.57,0-.76.52-.4,1.11-1.14,1.62-1.54l-.03-.04c.27-.22.63-.55.93-.99,2.62,1.09,10.39,2.32,16.37,2.32"/>
              <path class="cls-7" d="M38.38,55.32c-.11.35-.16,1.59.35,2.92.31.84.75,1.52,1.09,1.91-2.24,1.24-12.19,1.63-16.16,1.63-5.98,0-13.75-1.23-16.37-2.32.18-.24.34-.52.46-.84.44-1.15.65-2.43.63-2.98.91.54,2.72,1.01,5.13,1.36.01-.01.01,0,.02,0,2.63.36,5.98.59,9.63.59s7.07-.23,9.73-.61c2.87-.41,4.88-1,5.47-1.68l.02.02Z"/>
              <path class="cls-7" d="M20.82,10.63c-.34-.45-1.4-.13-1.87,0-1.23.36-2.8,1.3-2.64,1.88.18.67,2.76,1.06,3.96-.14.48-.48.85-1.34.55-1.74M38.52,55.06c-.03.08-.08.16-.16.24-.59.68-2.6,1.27-5.47,1.68-2.66.38-6.04.61-9.73.61s-7-.23-9.63-.59c-.01,0-.01-.01-.02,0-2.41-.35-4.22-.82-5.13-1.36-.3-.17-.5-.35-.59-.54h0c-.03-.08-.05-.16-.05-.23h0c-.96-1.34-2.15-3.61-2.12-5.76.02-2.13,1.12-3.76,4.37-7.5,5.14-5.93,5.57-5.5,7.36-7.98,4.09-5.72,5.2-12.69,3.82-13.48-.49-.28-.94.43-3.19.91-1.03.21-1.52.25-3.06-.15-2.41-.62-2.37-2.01-4.09-2.22-2.49-.29-5.01,3.06-6.95,2.37-.57-.21-1.11-1.26-1.11-1.26l3.26-2.5-4.87-.06s-.46-.75-.41-1.19c.19-1.69,4.22-1.53,8.82-3.82,3.99-1.98,3.82-2.98,6.53-4.17,2.72-1.18,4.57,0,5.28-1.11.84-1.3-.3-4.07-.94-5.42-.17-.36.1-.79.51-.78,1.12.02,3.62.34,4.81,1.27,1.78,1.42,1.29,2.58,2.91,3.54,2.02,1.21,3.1-.25,4.45,1.04,1.08,1.05.32,2.22,1.59,3.34.92.8,1.54.4,2.78,1.45.46.4,1.3,1.12,1.32,2.09.02.77-.51.92-.42,1.6.11.85.93.86,1.53,2.01.3.58.37,1.1.49,2.16.15,1.3-.04,1.52.14,2.22.3,1.21,1.07,1.34,1.6,2.29.87,1.55-1.89,2.73-2.25,6.92-.15,1.85,1.25,2.66,1.55,3.77.41,1.52-.29,3.17.12,4.75.75,2.86-1.58,4.01-1.67,5.19-.15,1.92-1.18,2.76-1.48,3.89-.47,1.71.64,3.03-.19,4.26-.55.82,1.15,1.81.53,2.4-.02.01-.23.11-.24.12"/>
              <path class="cls-6" d="M20.82,10.63c.3.4-.07,1.26-.55,1.74-1.2,1.2-3.78.81-3.96.14-.16-.58,1.41-1.52,2.64-1.88.47-.13,1.53-.45,1.87,0"/>
            </g>
          </g>
          <path class="cls-3" d="M6.38,60.35s-.03.04-.04.06"/>
          <path class="cls-4" d="M7.16,59.4s.08.04.13.06c2.62,1.09,10.39,2.32,16.37,2.32,3.97,0,13.92-.39,16.16-1.63.13-.06.23-.14.3-.21.17.29.84,1.34,1.3,1.68.24.18.49.35.74.51.5.33.46,1.09-.09,1.33-2.91,1.31-10.15,2.23-18.62,2.23-9.35,0-16.6-1.34-18.68-2.9-.26-.19-.26-.57,0-.76.52-.4,1.11-1.14,1.62-1.54h0"/>
          <path class="cls-3" d="M40.14,60.53s-.01-.02-.02-.04"/>
          <path class="cls-3" d="M7.84,55.64s-.01-.07-.02-.1"/>
          <path class="cls-4" d="M38.38,55.32c-.11.35-.16,1.59.35,2.92.31.84.75,1.52,1.09,1.91.14.16.26.27.35.33"/>
          <path class="cls-3" d="M8.35,55.43c.02.05.02.12.03.21.02.55-.19,1.83-.63,2.98-.12.32-.28.6-.46.84-.3.44-.66.77-.93.99-.14.11-.26.19-.34.25"/>
          <path class="cls-3" d="M7.74,54.86c-.96-1.33-2.15-3.6-2.12-5.75.02-2.13,1.12-3.76,4.37-7.5,5.14-5.93,5.57-5.5,7.36-7.98,4.09-5.72,5.2-12.69,3.82-13.48-.49-.28-.94.43-3.19.91-1.03.21-1.52.25-3.06-.15-2.41-.62-2.37-2.01-4.09-2.22-2.49-.29-5.01,3.06-6.95,2.37-.57-.21-1.11-1.26-1.11-1.26l3.26-2.5-4.87-.06s-.46-.75-.41-1.19c.19-1.69,4.22-1.53,8.82-3.82,3.99-1.98,3.82-2.98,6.53-4.17,2.72-1.18,4.57-.01,5.28-1.11.84-1.3-.3-4.07-.94-5.42-.17-.36.1-.79.51-.78,1.12.02,3.62.34,4.81,1.27,1.78,1.42,1.29,2.58,2.91,3.54,2.02,1.21,3.1-.25,4.45,1.04,1.08,1.05.32,2.22,1.59,3.34.92.8,1.54.4,2.78,1.45.46.4,1.3,1.12,1.32,2.09.02.77-.51.92-.42,1.6.11.85.93.86,1.53,2.01.3.58.37,1.1.49,2.16.15,1.3-.04,1.52.14,2.22.3,1.21,1.07,1.34,1.6,2.29.87,1.55-1.89,2.73-2.25,6.92-.15,1.85,1.25,2.66,1.55,3.77.41,1.52-.29,3.17.12,4.75.75,2.86-1.58,4.01-1.67,5.19-.15,1.92-1.18,2.76-1.48,3.89-.47,1.71.64,3.03-.19,4.26-.55.82,1.15,1.81.53,2.4-.02,0-.23.11-.24.12-.03.08-.08.16-.16.24-.59.68-2.6,1.27-5.47,1.68-2.66.38-6.04.61-9.73.61s-7-.23-9.63-.59c-.01,0-.01-.01-.02,0-2.41-.35-4.22-.82-5.13-1.36-.3-.17-.5-.35-.59-.54h0c-.03-.08-.05-.16-.05-.23"/>
          <path class="cls-3" d="M38.52,55.06c-.26.25-.49.45-.68.58"/>
          <path class="cls-3" d="M8.25,55.5c-.15-.18-.32-.39-.51-.63h0"/>
          <path class="cls-3" d="M16.31,12.51c-.16-.58,1.41-1.52,2.64-1.88.47-.13,1.53-.45,1.87,0,.3.4-.07,1.26-.55,1.74-1.2,1.2-3.78.81-3.96.14Z"/>
          <path class="cls-1" d="M28.66,14.22c4.34,2.51,4.38,5.21,5,7.17,1.3,4.12-1.77,8.31-4.35,20.85-.92,4.46,1.74,9.12,3.26,10.86"/>
        </g>
      </g>
    </g>
  </g>
</svg>