<?xml version="1.0" encoding="UTF-8"?>
<svg id="Layer_2" data-name="Layer 2" xmlns="http://www.w3.org/2000/svg" xmlns:xlink="http://www.w3.org/1999/xlink" viewBox="0 0 40.54 52.3">
  <defs>
    <style>
      .cls-1 {
        clip-path: url(#clippath);
      }

      .cls-2, .cls-3 {
        fill: none;
      }

      .cls-2, .cls-4, .cls-5 {
        stroke-width: 0px;
      }

      .cls-3 {
        stroke: #231f20;
        stroke-miterlimit: 10;
      }

      .cls-4 {
        fill: #ffe8ca;
      }

      .cls-6 {
        clip-path: url(#clippath-1);
      }

      .cls-5 {
        fill: #231f20;
      }
    </style>
    <clipPath id="clippath">
      <rect class="cls-2" width="40.54" height="52.3"/>
    </clipPath>
    <clipPath id="clippath-1">
      <rect class="cls-2" y="0" width="40.54" height="52.3"/>
    </clipPath>
  </defs>
  <g id="Layer_1-2" data-name="Layer 1">
    <g id="pawn-white">
      <g class="cls-1">
        <g class="cls-6">
          <path class="cls-4" d="M40.04,48.07c0,2.06-8.85,3.73-19.77,3.73S.5,50.13.5,48.07c0-.36.28-.71.78-1.04h.01c.28-.19.65-.37,1.08-.55,1.42,1.62,8.9,2.85,17.9,2.85s16.48-1.23,17.9-2.85c.43.17.79.35,1.07.54h0c.51.32.79.68.79,1.04"/>
          <path class="cls-3" d="M40.04,48.07c0,2.06-8.85,3.73-19.77,3.73S.5,50.13.5,48.07c0-.36.28-.71.78-1.04h.01c.28-.19.65-.37,1.08-.55,1.42,1.62,8.9,2.85,17.9,2.85s16.48-1.23,17.9-2.85c.43.17.79.35,1.07.54h0c.51.32.79.68.79,1.04Z"/>
          <path class="cls-4" d="M20.27,48.84c-9.51,0-16.38-1.37-17.53-2.68-.01-.02-.03-.03-.04-.05.28-.24.65-.6.98-1.11.12-.18.24-.4.34-.63.2-.45.34-.91.4-1.39.63.38,1.57.71,2.84,1.02,1.88.46,4.36.8,7.17,1,1.86.14,3.8.21,5.82.21s3.96-.07,5.78-.21c2.83-.19,5.28-.54,7.16-.99h.06c1.38-.34,2.25-.69,2.81-1.01.05.38.15.79.33,1.22.1.25.24.51.4.76l.15.23h.02c.28.39.59.69.85.9-.01.02-.02.04-.03.05-1.15,1.32-8.02,2.68-17.52,2.68"/>
          <path class="cls-5" d="M4.79,43.73c.62.28,1.4.53,2.36.76,1.91.47,4.42.82,7.26,1.01h.08c1.82.14,3.76.21,5.78.21s3.99-.07,5.79-.21h.07c2.78-.2,5.24-.54,7.13-.99h0l.12-.03c.95-.23,1.72-.47,2.33-.74.06.22.13.44.23.66.12.28.26.57.44.84l.3.46h.04c.12.14.23.27.35.39-1.62.99-7.48,2.24-16.8,2.24s-15.16-1.25-16.81-2.26c.21-.22.43-.49.64-.81.14-.2.26-.44.39-.71.12-.28.22-.56.3-.85M3.96,41.74c.05.47.08,1.4-.38,2.42-.09.2-.2.39-.31.56-.41.62-.88,1.01-1.15,1.2,0,.19.09.38.24.56,1.42,1.62,8.9,2.86,17.9,2.86s16.48-1.23,17.9-2.86c.16-.18.25-.56.25-.56-.25-.17-.75-.55-1.18-1.22h0c-.13-.2-.25-.43-.36-.68-.39-.93-.35-1.77-.3-2.22-.19.65-1.44,1.23-3.42,1.71h0c-1.82.44-4.26.79-7.09.99h-.05c-1.78.13-3.72.21-5.74.21s-3.96-.07-5.74-.21h-.05c-2.82-.2-5.28-.55-7.09-.99-2.04-.49-3.3-1.1-3.43-1.77"/>
          <path class="cls-4" d="M20.27,44.21c-2,0-3.92-.07-5.7-.2-2.81-.19-5.23-.53-7.06-.98-2.89-.69-3.05-1.36-3.06-1.38v-.12c0-.18.98-1.05,5.25-1.75-.03.12-.18.64-.18.64v.06c0,2.41,10.32,2.44,10.76,2.44s10.76-.03,10.76-2.44v-.08l-.2-.62c4.28.69,5.27,1.57,5.27,1.85v.04c-.03.07-.29.69-3.01,1.35h-.07c-1.83.46-4.25.8-7,.99-1.84.14-3.76.2-5.75.2"/>
          <path class="cls-5" d="M9.01,40.41v.07c0,2.65,7.87,2.94,11.26,2.94s11.26-.29,11.26-2.94v-.07c2.37.44,3.5.93,3.92,1.22-.28.19-.94.53-2.42.89h0l-.12.03c-1.8.44-4.2.77-6.9.96h-.08c-1.78.14-3.69.21-5.67.21s-3.88-.07-5.66-.2h-.09s0,0,0,0c-2.72-.19-5.1-.52-6.89-.96-1.56-.37-2.24-.73-2.53-.92.42-.29,1.55-.77,3.92-1.22M30.12,39.16c.12.38.23.74.34,1.09.02.08.05.15.07.22,0,1.07-4.59,1.94-10.26,1.94s-10.26-.87-10.26-1.94c.01-.06.04-.13.05-.2.11-.36.21-.74.32-1.12-3.92.57-6.45,1.46-6.45,2.46,0,.04,0,.08.02.12.14.67,1.39,1.28,3.43,1.77,1.82.44,4.27.79,7.09.99h.05c1.78.13,3.72.21,5.74.21s3.96-.07,5.74-.21h.05c2.82-.2,5.27-.55,7.09-.99h0c1.98-.47,3.23-1.06,3.42-1.71t0-.02c0-.06.02-.12.02-.17,0-1-2.55-1.9-6.48-2.46"/>
          <path class="cls-4" d="M30.53,15.89c0,.55-1.19,1.04-3.1,1.38-1.85.34-4.37.55-7.16.55s-5.06-.19-6.89-.5c-2.07-.36-3.37-.86-3.37-1.43,0-.81,2.59-1.49,6.29-1.79h0c1.15.73,2.51,1.15,3.96,1.15s2.81-.42,3.95-1.15h0c3.69.29,6.3.98,6.3,1.79"/>
          <path class="cls-3" d="M30.53,15.89c0,.55-1.19,1.04-3.1,1.38-1.85.34-4.37.55-7.16.55s-5.06-.19-6.89-.5c-2.07-.36-3.37-.86-3.37-1.43,0-.81,2.59-1.49,6.29-1.79h0c1.15.73,2.51,1.15,3.96,1.15s2.81-.42,3.95-1.15h0c3.69.29,6.3.98,6.3,1.79Z"/>
          <path class="cls-4" d="M30.53,40.48c0,1.07-4.6,1.94-10.26,1.94s-10.26-.87-10.26-1.94c.02-.06.04-.13.06-.2.11-.36.14-.77.32-1.11,1.74-3.24,3.74-6.24,4.29-10.19.58-4.15-.43-8.52-1.31-11.65,1.83.31,4.24.5,6.89.5,2.78,0,5.31-.2,7.16-.54-.85,3.39-2.26,6.43-1.5,11.64.67,4.57,2.88,7.49,4.19,10.24.17.36.23.74.34,1.09.02.08.05.15.07.22"/>
          <path class="cls-3" d="M30.53,40.48c0,1.07-4.6,1.94-10.26,1.94s-10.26-.87-10.26-1.94c.02-.06.04-.13.06-.2.11-.36.14-.77.32-1.11,1.74-3.24,3.74-6.24,4.29-10.19.58-4.15-.43-8.52-1.31-11.65,1.83.31,4.24.5,6.89.5,2.78,0,5.31-.2,7.16-.54-.85,3.39-2.26,6.43-1.5,11.64.67,4.57,2.88,7.49,4.19,10.24.17.36.23.74.34,1.09.02.08.05.15.07.22Z"/>
          <line class="cls-4" x1=".5" y1="48.07" x2="1.67" y2="46.53"/>
          <line class="cls-3" x1=".5" y1="48.07" x2="1.67" y2="46.53"/>
          <path class="cls-4" d="M27.72,7.95c0,2.65-1.38,4.97-3.47,6.29h0c-1.15.73-2.51,1.15-3.97,1.15s-2.83-.42-3.98-1.15h0c-2.08-1.33-3.47-3.64-3.47-6.29,0-4.12,3.34-7.45,7.45-7.45s7.44,3.33,7.44,7.45"/>
          <path class="cls-3" d="M27.72,7.95c0,2.65-1.38,4.97-3.47,6.29h0c-1.15.73-2.51,1.15-3.97,1.15s-2.83-.42-3.98-1.15h0c-2.08-1.33-3.47-3.64-3.47-6.29,0-4.12,3.34-7.45,7.45-7.45s7.44,3.33,7.44,7.45Z"/>
        </g>
      </g>
    </g>
  </g>
</svg>