<?xml version="1.0" encoding="UTF-8"?>
<svg id="Layer_2" data-name="Layer 2" xmlns="http://www.w3.org/2000/svg" xmlns:xlink="http://www.w3.org/1999/xlink" viewBox="0 0 40.54 52.3">
  <defs>
    <style>
      .cls-1 {
        clip-path: url(#clippath);
      }

      .cls-2, .cls-3 {
        fill: none;
      }

      .cls-2, .cls-4, .cls-5 {
        stroke-width: 0px;
      }

      .cls-3 {
        stroke: #231f20;
        stroke-miterlimit: 10;
      }

      .cls-6 {
        clip-path: url(#clippath-1);
      }

      .cls-7 {
        clip-path: url(#clippath-3);
      }

      .cls-8 {
        clip-path: url(#clippath-2);
      }

      .cls-4 {
        fill: #b3d9ff;
      }

      .cls-5 {
        fill: #fff;
      }
    </style>
    <clipPath id="clippath">
      <rect class="cls-2" width="40.54" height="52.3"/>
    </clipPath>
    <clipPath id="clippath-1">
      <rect class="cls-2" y="0" width="40.54" height="52.3"/>
    </clipPath>
    <clipPath id="clippath-2">
      <rect class="cls-2" x=".5" y=".5" width="39.54" height="51.3"/>
    </clipPath>
    <clipPath id="clippath-3">
      <rect class="cls-2" x=".5" y=".5" width="39.54" height="51.3"/>
    </clipPath>
  </defs>
  <g id="Layer_1-2" data-name="Layer 1">
    <g id="pawn-black">
      <g class="cls-1">
        <g class="cls-6">
          <g class="cls-8">
            <g class="cls-7">
              <path class="cls-4" d="M7.38,43.51c1.82.44,4.28.79,7.1.99h.05c1.78.13,3.71.2,5.74.2s3.96-.07,5.74-.2h.05c2.82-.2,5.26-.55,7.08-.99h0c1.98-.48,3.23-1.06,3.42-1.71-.06.45-.09,1.29.3,2.22.1.26.23.49.35.68h.01c.43.67.93,1.06,1.18,1.22,0,0-.09.38-.25.56-1.41,1.62-8.89,2.86-17.89,2.86s-16.49-1.24-17.91-2.86c-.15-.18-.24-.37-.24-.56.27-.19.73-.58,1.14-1.2.12-.17.22-.36.31-.56.46-1.02.43-1.95.38-2.42.14.67,1.39,1.28,3.43,1.77"/>
              <path class="cls-4" d="M10.01,40.47c0,1.07,4.6,1.94,10.26,1.94s10.25-.87,10.25-1.94c-.02-.07-.04-.14-.07-.22-.11-.35-.17-.73-.34-1.09,3.94.56,6.49,1.45,6.49,2.46,0,.05-.02.1-.03.17h0c-.19.66-1.44,1.24-3.42,1.72h0c-1.82.44-4.26.79-7.08.99h-.05c-1.78.13-3.72.2-5.74.2s-3.96-.07-5.74-.2h-.05c-2.82-.2-5.28-.55-7.1-.99-2.04-.49-3.29-1.1-3.43-1.77-.01-.04-.01-.08-.01-.12,0-1.01,2.53-1.89,6.45-2.46-.19.35-.21.75-.32,1.11-.02.08-.04.14-.06.2"/>
              <path class="cls-4" d="M20.27,15.25c-1.46,0-2.82-.42-3.96-1.15h-.01c-.06,0-.13,0-.19.02-1.98-1.34-3.29-3.6-3.29-6.17,0-4.12,3.34-7.45,7.45-7.45s7.45,3.33,7.45,7.45c0,2.57-1.31,4.83-3.29,6.17-.06-.01-.13-.01-.2-.02h-.01c-1.15.73-2.5,1.15-3.95,1.15"/>
              <path class="cls-4" d="M30.52,40.47c0,1.07-4.59,1.94-10.25,1.94s-10.26-.87-10.26-1.94c.02-.06.04-.12.06-.2.11-.36.21-.73.32-1.11,1.74-3.24,3.74-6.24,4.29-10.19.58-4.15-.43-8.52-1.3-11.65,1.83.31,4.24.5,6.89.5,2.78,0,5.3-.21,7.15-.55-.85,3.39-2.26,6.43-1.5,11.65.67,4.56,2.88,7.49,4.19,10.24.12.38.23.74.34,1.09.03.08.05.15.07.22"/>
              <path class="cls-4" d="M16.3,14.24c1.15.73,2.51,1.15,3.97,1.15s2.82-.42,3.97-1.15h.01c.06-.04.12-.08.18-.12,3.58.3,6.09.97,6.09,1.77,0,.54-1.18,1.03-3.1,1.38-1.85.34-4.37.55-7.15.55s-5.06-.19-6.89-.5c-2.07-.36-3.37-.86-3.37-1.43,0-.8,2.5-1.48,6.1-1.77.06.04.12.08.18.12h.01Z"/>
              <path class="cls-5" d="M16.31,14.1c1.14.73,2.5,1.15,3.96,1.15s2.8-.42,3.95-1.15h.01c.07.01.14.01.2.02-.06.04-.12.08-.18.12h-.01c-1.15.73-2.51,1.15-3.97,1.15s-2.82-.42-3.97-1.15h-.01c-.06-.04-.12-.08-.18-.12.06,0,.13-.02.19-.02h.01Z"/>
              <path class="cls-4" d="M1.27,47.03h.02c.28-.19.65-.37,1.07-.55,1.42,1.62,8.9,2.86,17.91,2.86s16.48-1.24,17.89-2.86c.43.17.79.35,1.08.54h0c.51.32.79.68.79,1.04,0,2.07-8.85,3.74-19.77,3.74S.53,50.14.5,48.07h0s.77-1.04.77-1.04Z"/>
              <path class="cls-5" d="M.5,48.06c0-.36.27-.71.77-1.03l-.77,1.03Z"/>
            </g>
          </g>
          <path class="cls-3" d="M1.29,47.02c.28-.18.65-.36,1.07-.54"/>
          <path class="cls-3" d="M.5,48.06c0-.36.27-.71.77-1.03"/>
          <path class="cls-3" d="M38.16,46.48c.43.17.79.35,1.08.54h0c.51.32.79.68.79,1.04,0,2.07-8.85,3.74-19.77,3.74S.53,50.14.5,48.07"/>
          <path class="cls-3" d="M36.57,41.8c-.06.45-.09,1.29.3,2.22.1.26.23.49.35.68h.01c.43.67.93,1.06,1.18,1.22,0,0-.09.38-.25.56-1.41,1.62-8.89,2.86-17.89,2.86s-16.49-1.24-17.91-2.86c-.15-.18-.24-.37-.24-.56.27-.19.73-.58,1.14-1.2.12-.17.22-.36.31-.56.46-1.02.43-1.95.38-2.42"/>
          <path class="cls-3" d="M30.45,40.25c-.11-.35-.22-.71-.34-1.09,3.94.56,6.49,1.45,6.49,2.46,0,.05-.02.1-.03.17h0c-.19.66-1.44,1.24-3.42,1.72h0c-1.82.44-4.26.79-7.08.99h-.05c-1.78.13-3.72.2-5.74.2s-3.96-.07-5.74-.2h-.05c-2.82-.2-5.28-.55-7.1-.99-2.04-.49-3.29-1.1-3.43-1.77-.01-.04-.01-.08-.01-.12,0-1.01,2.53-1.89,6.45-2.46-.11.38-.21.75-.32,1.11"/>
          <path class="cls-3" d="M13.38,17.32c-2.07-.36-3.37-.86-3.37-1.43,0-.8,2.5-1.48,6.1-1.77.06-.01.13-.02.19-.02h.01c1.14.73,2.5,1.15,3.96,1.15s2.8-.42,3.95-1.15h.01c.07,0,.14,0,.2.02,3.58.3,6.09.97,6.09,1.77,0,.54-1.18,1.03-3.1,1.38"/>
          <path class="cls-3" d="M30.45,40.25c.03.08.05.15.07.22,0,1.07-4.59,1.94-10.25,1.94s-10.26-.87-10.26-1.94c.02-.06.04-.12.06-.2.11-.36.13-.76.32-1.11,1.74-3.24,3.74-6.24,4.29-10.19.58-4.15-.43-8.52-1.3-11.65,1.83.31,4.24.5,6.89.5,2.78,0,5.3-.21,7.15-.55-.85,3.39-2.26,6.43-1.5,11.65.67,4.56,2.88,7.49,4.19,10.24.17.36.23.74.34,1.09Z"/>
          <polyline class="cls-3" points=".5 48.07 .5 48.06 1.27 47.03 1.29 47.02 1.66 46.52"/>
          <path class="cls-3" d="M16.11,14.12c-1.98-1.34-3.29-3.6-3.29-6.17,0-4.12,3.34-7.45,7.45-7.45s7.45,3.33,7.45,7.45c0,2.57-1.31,4.83-3.29,6.17-.06.04-.12.08-.18.12h-.01c-1.15.73-2.51,1.15-3.97,1.15s-2.82-.42-3.97-1.15h-.01l-.18-.12Z"/>
        </g>
      </g>
    </g>
  </g>
</svg>