<?xml version="1.0" encoding="UTF-8"?>
<svg id="Layer_2" data-name="Layer 2" xmlns="http://www.w3.org/2000/svg" xmlns:xlink="http://www.w3.org/1999/xlink" viewBox="0 0 42.44 81.46">
  <defs>
    <style>
      .cls-1 {
        clip-path: url(#clippath);
      }

      .cls-2, .cls-3, .cls-4, .cls-5, .cls-6, .cls-7, .cls-8, .cls-9, .cls-10 {
        fill: none;
      }

      .cls-2, .cls-11 {
        stroke-width: 0px;
      }

      .cls-3 {
        stroke-width: 1.2px;
      }

      .cls-3, .cls-4, .cls-5, .cls-7, .cls-10 {
        stroke-linecap: round;
        stroke-linejoin: round;
      }

      .cls-3, .cls-4, .cls-6, .cls-7, .cls-9, .cls-10 {
        stroke: #231f20;
      }

      .cls-4, .cls-6 {
        stroke-width: 1.21px;
      }

      .cls-5 {
        stroke-width: .5px;
      }

      .cls-5, .cls-8 {
        stroke: #000;
      }

      .cls-6, .cls-8, .cls-9 {
        stroke-miterlimit: 10;
      }

      .cls-12 {
        clip-path: url(#clippath-1);
      }

      .cls-13 {
        clip-path: url(#clippath-3);
      }

      .cls-14 {
        clip-path: url(#clippath-2);
      }

      .cls-7 {
        stroke-width: 1.45px;
      }

      .cls-11 {
        fill: #b3d9ff;
      }

      .cls-9, .cls-10 {
        stroke-width: 1.07px;
      }
    </style>
    <clipPath id="clippath">
      <rect class="cls-2" width="42.44" height="81.46"/>
    </clipPath>
    <clipPath id="clippath-1">
      <rect class="cls-2" y="0" width="42.44" height="81.46"/>
    </clipPath>
    <clipPath id="clippath-2">
      <rect class="cls-2" x=".72" y=".5" width="40.99" height="80.24"/>
    </clipPath>
    <clipPath id="clippath-3">
      <rect class="cls-2" x=".72" y=".5" width="40.99" height="80.24"/>
    </clipPath>
  </defs>
  <g id="Layer_1-2" data-name="Layer 1">
    <g id="queen-black">
      <g class="cls-1">
        <g class="cls-12">
          <g class="cls-14">
            <g class="cls-13">
              <path class="cls-11" d="M37.99,75.05c1.29.4,3.72,1.88,3.72,2.43,0,1.72-9.88,3.31-20.69,3.26-11.56-.06-20.3-1.48-20.3-3.21,0-.59,1.46-1.9,3.09-2.5l.16-.49c2.87.9,11.06,2.07,17.98,2.07s13.07-1.12,15.89-2.01l.15.45Z"/>
              <path class="cls-11" d="M37.84,74.6c-2.82.89-9,2.01-15.89,2.01s-15.11-1.17-17.98-2.07c-.01,0-.02,0-.03,0v-.02c.21-.21.45-.51.67-.89h0c.13-.24.27-.5.38-.79.37-.89.61-1.89.65-2.5,1.87.48,4.29,1.01,7.12,1.39,3.63.49,6.41.53,8.31.54,1.09.02,4.27.02,8.41-.38,2.44-.23,4.54-.54,6.2-.82.03-.01.06-.02.09-.02,0,.32.14.66.64,1.69.46.97,1.2,1.5,1.63,1.75l-.03.06c-.06.02-.12.04-.18.06"/>
              <path class="cls-11" d="M15.05,22.72c1.36.1,3.56.2,6.34.2,2.09,0,4.17-.06,6.02-.18h.02v.38c-.17,8.09.32,18.19,2.98,29.32,1.55,6.45,3.28,13.43,5.16,18.2h0c.14.37-.03.05.11.38v.04c-1.65.28-3.75.59-6.19.82-4.14.4-7.32.4-8.41.38-1.9-.01-4.68-.05-8.31-.54-2.83-.38-5.25-.91-7.12-1.39,0-.08,0-.14,0-.2h0c2.31-4.61,4.8-11.92,6.59-19.56,2.51-10.71,3.06-20.24,2.8-27.45v-.4Z"/>
              <path class="cls-11" d="M27.46,20.94c1.73.12,2.85.27,3.54.41-.64.12-1.72.27-3.57.4.01-.28.02-.54.03-.81"/>
              <path class="cls-11" d="M27.47,20.65c0,.09-.01.19-.01.29h-.01l.02-.29Z"/>
              <path class="cls-11" d="M20.41,20.69c-.28-.02-.88-.39-1.1-.48v-.02c-2.19-1.09-3.55-2.1-4.6-3.28-.27-.29-.52-.59-.75-.9-2.5-3.37-2.93-9.56-2.93-9.56,0,0,1.82,1.21,4.38,2.24,1.77.73,3.91,1.37,6.05,1.46,2.16-.05,4.25-.62,6-1.31,2.67-1.04,4.25-2.23,4.44-2.36-.08.29-1.23,5.19-1.87,6.6-.78,1.71-1.48,2.86-2.38,3.79,0,0,0,.01-.01.01-1.18,1.21-2.51,2.53-4.98,3.83-.28.1-.67.2-1.15.19-.47-.01-.85-.11-1.1-.21"/>
              <path class="cls-11" d="M15.41,8.69c.41-2.86,2.8-5.07,5.74-5.2,0,.01.01,0,.01,0,.12.04.24.05.36.05s.23-.01.34-.04c2.91.21,5.26,2.47,5.6,5.34-1.75.69-3.84,1.26-6,1.31-2.14-.09-4.28-.73-6.05-1.46"/>
              <path class="cls-11" d="M21.42,3.48c.15,0,.3.01.44.02-.11.03-.22.04-.34.04s-.24-.01-.36-.05c.09-.01.17-.01.26-.01"/>
              <path class="cls-11" d="M21.52.5c.84,0,1.52.68,1.52,1.52,0,.72-.5,1.33-1.18,1.48-.14,0-.29-.02-.44-.02-.09,0-.17,0-.26.01,0,0-.01,0-.01,0-.66-.16-1.15-.76-1.15-1.47,0-.84.68-1.52,1.52-1.52"/>
              <path class="cls-11" d="M19.31,20.21c.22.09.82.46,1.1.48.25.1.63.2,1.1.21.48,0,.87-.09,1.15-.19,2.47-1.3,3.8-2.62,4.98-3.83-.05,1-.15,2.79-.19,4.06h.01c-.01.27-.02.53-.03.81h-.04c-1.84.11-3.92.17-6,.17-2.8,0-4.99-.1-6.33-.19h-.06c-1.63-.13-2.61-.27-3.2-.39.63-.12,1.64-.26,3.16-.37h.02c-.08-1.38-.23-2.88-.36-3.98l.09-.08c1.05,1.18,2.41,2.19,4.61,3.28v.02Z"/>
              <path class="cls-11" d="M15.06,21.73c1.34.09,3.53.19,6.33.19,2.08,0,4.16-.06,6-.17h.04c1.85-.13,2.93-.28,3.57-.4-.69-.14-1.81-.29-3.54-.41,0-.1.01-.2.01-.29v-.21s.05-.49.05-.49c5.23.34,5.23.95,5.23,1.39s0,1.06-5.3,1.4h-.04c-1.85.12-3.93.18-6.02.18-2.78,0-4.98-.1-6.34-.2h-.06c-4.96-.36-4.96-.92-4.96-1.38,0-.43,0-1.02,4.86-1.36l.07.99c-1.52.11-2.53.25-3.16.37.59.12,1.57.26,3.2.39h.06Z"/>
            </g>
          </g>
          <path class="cls-7" d="M3.81,74.49s.08.03.13.04c0,0,.02,0,.03,0,2.87.9,11.06,2.07,17.98,2.07s13.07-1.12,15.89-2.01c.06-.02.12-.04.18-.06"/>
          <path class="cls-7" d="M37.75,74.98c.08.02.16.04.24.07,1.29.4,3.72,1.88,3.72,2.43,0,1.72-9.88,3.31-20.69,3.26-11.56-.06-20.3-1.48-20.3-3.21,0-.59,1.46-1.9,3.09-2.5"/>
          <path class="cls-3" d="M5.39,70.26c.08.02.17.04.26.07,1.87.48,4.29,1.01,7.12,1.39,3.63.49,6.41.53,8.31.54,1.09.02,4.27.02,8.41-.38,2.44-.23,4.54-.54,6.2-.82.03,0,.06-.02.09-.02.04-.01.08-.01.12-.02"/>
          <path class="cls-9" d="M35.98,70.43c-.05.04-.12.08-.2.12"/>
          <path class="cls-4" d="M5.66,70.12c2.31-4.6,4.8-11.91,6.59-19.55,2.51-10.71,3.06-20.24,2.8-27.45"/>
          <path class="cls-4" d="M5.58,70.29s.02-.05.03-.07c.01-.03.03-.06.05-.09"/>
          <path class="cls-4" d="M15,21.28c-.01-.1-.01-.2-.02-.31-.08-1.38-.23-2.88-.36-3.98"/>
          <path class="cls-9" d="M5.98,69.31c-.16.24-.4.69-.56.91"/>
          <path class="cls-6" d="M27.46,20.94c-.01.27-.02.53-.03.81"/>
          <path class="cls-6" d="M27.64,16.88c-.05,1-.15,2.79-.19,4.06-.01.14-.02.27-.02.39"/>
          <path class="cls-4" d="M27.43,23.12c-.17,8.09.32,18.19,2.98,29.32,1.55,6.45,3.28,13.43,5.16,18.2h0c.14.37-.03.05.11.38"/>
          <line class="cls-6" x1="27.65" y1="16.87" x2="27.65" y2="16.77"/>
          <path class="cls-10" d="M35.79,70.91s-.01.09-.01.13c0,.32.14.66.64,1.69.46.97,1.2,1.5,1.63,1.75.1.06.19.11.25.14"/>
          <path class="cls-9" d="M4.61,73.62c-.22.38-.46.68-.66.89"/>
          <path class="cls-9" d="M5.66,70.04v.08h0c0,.07,0,.13-.01.21-.04.61-.28,1.61-.65,2.5-.11.29-.25.55-.38.78"/>
          <path class="cls-8" d="M15.41,8.69c-2.56-1.03-4.38-2.24-4.38-2.24,0,0,.43,6.19,2.93,9.56.23.31.48.61.75.9,1.05,1.18,2.41,2.19,4.61,3.28.04.02.08.04.12.06"/>
          <path class="cls-8" d="M22.61,20.74s.03-.02.05-.03c2.47-1.3,3.8-2.62,4.98-3.83.01,0,.01-.01.01-.01.9-.93,1.6-2.08,2.38-3.79.64-1.41,1.79-6.31,1.87-6.6-.19.13-1.77,1.32-4.44,2.36"/>
          <path class="cls-8" d="M19.23,20.21s.02-.03.08,0c.22.09.82.46,1.1.48.25.1.63.2,1.1.21.48,0,.87-.09,1.15-.19.06-.02.11-.04.16-.06"/>
          <path class="cls-8" d="M21.16,3.49c.09,0,.17,0,.26,0,.15,0,.3,0,.44.02,2.91.21,5.26,2.47,5.6,5.34-1.75.69-3.84,1.26-6,1.31-2.14-.09-4.28-.73-6.05-1.46.41-2.86,2.8-5.07,5.74-5.2"/>
          <path class="cls-8" d="M21.15,3.49c-.66-.16-1.15-.76-1.15-1.47,0-.84.68-1.52,1.52-1.52s1.52.68,1.52,1.52c0,.72-.5,1.33-1.18,1.48-.11.03-.22.04-.34.04s-.24-.01-.36-.05c0,0,0,.01,0,0Z"/>
          <path class="cls-5" d="M27.47,20.65v-.21s.05-.49.05-.49c5.23.34,5.23.95,5.23,1.39s0,1.06-5.3,1.4h-.04c-1.85.12-3.93.18-6.02.18-2.78,0-4.98-.1-6.34-.2h-.06c-4.96-.36-4.96-.92-4.96-1.38,0-.43,0-1.02,4.86-1.36l.07.99c-1.52.11-2.53.25-3.16.37.59.12,1.57.26,3.2.39h.06c1.34.09,3.53.19,6.33.19,2.08,0,4.16-.06,6-.17h.04c1.85-.13,2.93-.28,3.57-.4-.69-.14-1.81-.29-3.54-.41"/>
          <path class="cls-5" d="M27.47,20.65c0,.09-.01.19-.01.29h-.01l.02-.29Z"/>
        </g>
      </g>
    </g>
  </g>
</svg>