<?xml version="1.0" encoding="UTF-8"?>
<svg id="Layer_2" data-name="Layer 2" xmlns="http://www.w3.org/2000/svg" xmlns:xlink="http://www.w3.org/1999/xlink" viewBox="0 0 45.7 58.54">
  <defs>
    <style>
      .cls-1 {
        clip-path: url(#clippath);
      }

      .cls-2, .cls-3, .cls-4, .cls-5 {
        fill: none;
      }

      .cls-2, .cls-6, .cls-7 {
        stroke-width: 0px;
      }

      .cls-3 {
        stroke-miterlimit: 10;
      }

      .cls-3, .cls-4, .cls-5 {
        stroke: #231f20;
      }

      .cls-8 {
        clip-path: url(#clippath-1);
      }

      .cls-9 {
        clip-path: url(#clippath-3);
      }

      .cls-10 {
        clip-path: url(#clippath-2);
      }

      .cls-4, .cls-5 {
        stroke-linejoin: round;
      }

      .cls-6 {
        fill: #b3d9ff;
      }

      .cls-5 {
        stroke-linecap: round;
      }

      .cls-7 {
        fill: #fff;
      }
    </style>
    <clipPath id="clippath">
      <rect class="cls-2" width="45.7" height="58.54"/>
    </clipPath>
    <clipPath id="clippath-1">
      <rect class="cls-2" y="0" width="45.7" height="58.54"/>
    </clipPath>
    <clipPath id="clippath-2">
      <rect class="cls-2" x=".5" y=".5" width="44.7" height="57.54"/>
    </clipPath>
    <clipPath id="clippath-3">
      <rect class="cls-2" x=".5" y=".5" width="44.7" height="57.54"/>
    </clipPath>
  </defs>
  <g id="Layer_1-2" data-name="Layer 1">
    <g id="rook-black">
      <g class="cls-1">
        <g class="cls-8">
          <g class="cls-10">
            <g class="cls-9">
              <path class="cls-6" d="M32.54,11.41c-2.83.45-6.08.76-9.69.77-3.78.01-7.17-.32-10.1-.78-.98-.16-1.9-.33-2.77-.5V.59h4.18l-.06,3.35h3.43l.03-3.41h3.5l-.03,3.41h3.06l.03-3.44h3.51l-.03,3.44h3.47l.06-3.35h4.26v10.31c-.89.18-1.84.35-2.85.51"/>
              <path class="cls-6" d="M4.91,47.36c.62.54,1.79,1.03,3.38,1.45,2.06.56,4.83.99,8.02,1.24h.05c2.01.17,4.2.26,6.49.26s4.48-.09,6.49-.26h.06c3.19-.25,5.95-.68,8-1.24h0c1.68-.44,2.89-.96,3.48-1.54.2-.17.33-.35.38-.53-.06.51-.09,1.45.34,2.51.12.28.26.54.41.77h0c.48.75,1.05,1.19,1.33,1.37,0,0-.1.43-.28.64-1.6,1.83-10.05,3.23-20.23,3.23s-18.64-1.4-20.24-3.23c-.18-.21-.27-.42-.27-.64.3-.21.83-.65,1.29-1.35.13-.19.24-.41.35-.64.52-1.15.48-2.2.43-2.73.04.24.22.47.5.69"/>
              <path class="cls-6" d="M11.36,43.71c-.01.09-.08,1.22-.1,1.3,0,1.34,5.19,2.43,11.59,2.43s11.6-1.09,11.6-2.43c-.03-.09-.04-1.53-.07-1.62-.12-.44,0,.29-.14-.19.12.02.24.04.35.06,4.24.71,6.72,1.96,6.72,3.19,0,.06-.02.13-.03.21t-.01.02c-.05.2-.18.4-.38.59-.59.52-1.8.99-3.48,1.4h0c-2.05.5-4.81.89-8,1.11h-.06c-2.01.16-4.2.24-6.49.24s-4.48-.08-6.49-.24h-.05c-3.19-.22-5.96-.61-8.02-1.11-1.59-.39-2.76-.83-3.38-1.31-.28-.24-.46-.5-.5-.76-.01-.05-.01-.1-.02-.15,0-1.22,2.56-2.85,6.77-3.59.13-.03.26-.05.39-.07-.13.47-.06.46-.19.92"/>
              <path class="cls-6" d="M34.24,43.2c.14.48.02-.25.14.19.03.09.04,1.53.07,1.62,0,1.34-5.2,2.43-11.6,2.43s-11.59-1.09-11.59-2.43c.02-.08.09-1.21.1-1.3.13-.46.06-.45.19-.92-.13.02-.26.04-.39.07l1.58-31.37v-.09c2.94.46,6.33.79,10.11.78,3.61,0,6.86-.32,9.69-.77l2.05,31.85c-.11-.02-.23-.04-.35-.06"/>
              <path class="cls-6" d="M2.61,52.03c1.6,1.83,10.06,3.23,20.24,3.23s18.63-1.4,20.23-3.23c.48.19.89.39,1.22.61h.01c.58.36.89.77.89,1.18,0,2.33-10,4.22-22.35,4.22S.5,56.15.5,53.82l.88-1.17h.02c.32-.22.73-.42,1.21-.62"/>
              <path class="cls-7" d="M.5,53.82c0-.41.32-.81.88-1.17l-.88,1.17Z"/>
            </g>
          </g>
          <path class="cls-4" d="M1.4,52.64c.32-.21.73-.41,1.21-.61"/>
          <path class="cls-4" d="M43.08,52.03c.48.19.89.39,1.22.61h.01c.58.36.89.77.89,1.18,0,2.33-10,4.22-22.35,4.22S.5,56.15.5,53.82c0-.41.32-.81.88-1.17"/>
          <path class="cls-4" d="M40.89,47.27c.2-.17.33-.35.38-.53-.06.51-.09,1.45.34,2.51.12.28.26.54.41.77h.01c.48.75,1.05,1.19,1.33,1.37,0,0-.1.43-.28.64-1.6,1.83-10.05,3.23-20.23,3.23s-18.64-1.4-20.24-3.23c-.18-.21-.27-.42-.27-.64.3-.21.83-.65,1.29-1.35.13-.19.24-.41.35-.64.52-1.15.48-2.2.43-2.73.04.24.22.47.5.69.62.48,1.79.92,3.38,1.31,2.06.5,4.83.89,8.02,1.11h.05c2.01.16,4.2.24,6.49.24s4.48-.08,6.49-.24h.06c3.19-.22,5.95-.61,8-1.11h0c1.68-.41,2.89-.88,3.48-1.4Z"/>
          <path class="cls-4" d="M34.59,43.26c4.24.71,6.72,1.96,6.72,3.19,0,.06-.02.13-.03.21t-.01.02c-.05.2-.18.4-.38.59-.59.58-1.8,1.1-3.48,1.54h-.01c-2.05.56-4.81.99-8,1.24h-.06c-2.01.17-4.2.26-6.49.26s-4.48-.09-6.49-.26h-.05c-3.19-.25-5.96-.68-8.02-1.24-1.59-.42-2.76-.91-3.38-1.45-.28-.24-.46-.5-.5-.76-.01-.05-.01-.1-.02-.15,0-1.22,2.56-2.85,6.77-3.59.13-.03.26-.05.39-.07-.13.47-.06.46-.19.92-.01.09-.08,1.22-.1,1.3,0,1.34,5.19,2.43,11.59,2.43s11.6-1.09,11.6-2.43c-.03-.09-.04-1.53-.07-1.62-.12-.44,0,.29-.14-.19.12.02.24.04.35.06Z"/>
          <polyline class="cls-3" points=".5 53.82 1.38 52.65 1.4 52.64 1.82 52.08"/>
          <path class="cls-3" d="M31.13.59h4.26v10.31c-.89.18-1.84.35-2.85.51-2.83.45-6.08.76-9.69.77-3.78.01-7.17-.32-10.1-.78-.98-.16-1.9-.33-2.77-.5V.59h4.18l-.06,3.35h3.43l.03-3.41h3.5l-.03,3.41h3.06l.03-3.44h3.51l-.03,3.44h3.47l.06-3.35Z"/>
          <line class="cls-3" x1="14.16" y1=".59" x2="14.16" y2=".32"/>
          <line class="cls-3" x1="14.16" y1="4.42" x2="14.16" y2="3.99"/>
          <line class="cls-3" x1="22.65" y1="4.08" x2="22.65" y2="3.99"/>
          <line class="cls-3" x1="31.13" y1=".59" x2="31.13" y2=".41"/>
          <polyline class="cls-5" points="11.03 45.4 11.16 42.86 12.74 11.49"/>
          <polyline class="cls-5" points="34.72 45.33 34.59 43.26 32.54 11.41 32.54 11.39"/>
        </g>
      </g>
    </g>
  </g>
</svg>