<?xml version="1.0" encoding="UTF-8"?>
<svg id="Layer_2" data-name="Layer 2" xmlns="http://www.w3.org/2000/svg" xmlns:xlink="http://www.w3.org/1999/xlink" viewBox="0 0 1.3 1.67">
  <defs>
    <style>
      .cls-1 {
        clip-path: url(#clippath);
      }

      .cls-2, .cls-3 {
        stroke-width: 0px;
      }

      .cls-2, .cls-4, .cls-5, .cls-6 {
        fill: none;
      }

      .cls-3 {
        fill: #ffe8ca;
      }

      .cls-7 {
        clip-path: url(#clippath-1);
      }

      .cls-8 {
        clip-path: url(#clippath-3);
      }

      .cls-9 {
        clip-path: url(#clippath-2);
      }

      .cls-4, .cls-5, .cls-6 {
        stroke: #231f20;
        stroke-width: .03px;
      }

      .cls-4, .cls-6 {
        stroke-linejoin: round;
      }

      .cls-5 {
        stroke-miterlimit: 10;
      }

      .cls-6 {
        stroke-linecap: round;
      }
    </style>
    <clipPath id="clippath">
      <rect class="cls-2" width="1.3" height="1.67"/>
    </clipPath>
    <clipPath id="clippath-1">
      <rect class="cls-2" y="0" width="1.3" height="1.67"/>
    </clipPath>
    <clipPath id="clippath-2">
      <rect class="cls-2" x=".01" y=".01" width="1.27" height="1.64"/>
    </clipPath>
    <clipPath id="clippath-3">
      <rect class="cls-2" x=".01" y=".01" width="1.27" height="1.64"/>
    </clipPath>
  </defs>
  <g id="Layer_1-2" data-name="Layer 1">
    <g id="rook-white">
      <g class="cls-1">
        <g class="cls-7">
          <g class="cls-9">
            <g class="cls-8">
              <path class="cls-3" d="M.99,1.27h0s-.14.07-.32.07-.34-.03-.34-.07c0,0,0-.02,0-.03H.32s0,0,0,0c0,0,0,0,0,0H.32s0-.01,0-.01c0,0,0,0,0,0l.04-.89h0c.08.01.18.02.29.02.1,0,.2,0,.28-.02l.06.91s0,0,0,0v.04Z"/>
              <path class="cls-3" d="M.14,1.35s.05.03.1.04c.06.02.14.03.23.04h0c.06,0,.12,0,.19,0s.13,0,.19,0h0c.09,0,.17-.02.23-.04h0s.08-.03.1-.04c0,0,0,0,0,0,0,0,0,0,0-.01,0,.01,0,.04,0,.07,0,0,0,.02.01.02h0s.03.03.04.04c0,0,0,.01,0,.02-.05.05-.29.09-.58.09s-.53-.04-.58-.09c0,0,0-.01,0-.02,0,0,.02-.02.04-.04,0,0,0-.01,0-.02.01-.03.01-.06.01-.08,0,0,0,0,0,.01,0,0,0,0,0,0"/>
              <path class="cls-3" d="M.4.11h.1V.02h.1v.1s.09,0,.09,0V.01h.1v.1s.1,0,.1,0V.02h.12v.29s-.05,0-.08.01c-.08.01-.17.02-.28.02-.11,0-.2,0-.29-.02-.03,0-.05,0-.08-.01V.02h.12v.1Z"/>
              <polygon class="cls-3" points=".99 1.27 .98 1.23 .99 1.23 .99 1.27"/>
              <path class="cls-3" d="M.32,1.22s0,0,0,0H.32Z"/>
              <polyline class="cls-3" points=".32 1.22 .32 1.22 .32 1.22 .32 1.22 .32 1.22 .32 1.22"/>
              <polyline class="cls-3" points=".32 1.24 .32 1.24 .32 1.24"/>
              <path class="cls-3" d="M.47,1.42c-.09,0-.17-.02-.23-.03-.05-.01-.08-.02-.1-.04,0,0,0,0,0,0,0,0,0-.01,0-.02,0,0,0,0,0,0,0-.03.07-.08.19-.1,0,0,0,0,0,.01H.32s0,0,0,0c0,0,0,0,0,0,0,0,0,0,0,0H.32s0,.03,0,.03c0,.04.16.07.34.07s.32-.03.32-.07h0s0,0,0,0v-.04c.12.02.19.06.19.09,0,0,0,0,0,0t0,0s0,0,0,.01c0,0,0,0,0,0-.02.01-.05.03-.1.04h0c-.06.01-.14.03-.23.03h0c-.06,0-.12,0-.19,0s-.13,0-.19,0h0Z"/>
              <polyline class="cls-3" points=".32 1.22 .32 1.22 .32 1.22"/>
              <path class="cls-3" d="M.24,1.39c.06.01.14.03.23.03h0c.06,0,.12,0,.19,0s.13,0,.19,0h0c.09,0,.17-.02.23-.03h0s.08-.03.1-.04c-.02.02-.05.03-.1.04h0c-.06.02-.14.03-.23.04h0c-.06,0-.12,0-.19,0s-.13,0-.19,0h0c-.09,0-.17-.02-.23-.04-.05-.01-.08-.03-.1-.04.02.01.05.03.1.04"/>
              <path class="cls-3" d="M.04,1.5h0s.02-.01.03-.02c.05.05.29.09.58.09s.53-.04.58-.09c.01,0,.03.01.03.02h0s.03.02.03.03c0,.07-.29.12-.64.12S.01,1.6.01,1.53l.03-.03Z"/>
              <path class="cls-3" d="M.01,1.53s0-.02.03-.03l-.03.03Z"/>
            </g>
          </g>
          <path class="cls-4" d="M.04,1.5s.02-.01.03-.02"/>
          <path class="cls-4" d="M1.23,1.48s.03.01.03.02h0s.03.02.03.03c0,.07-.29.12-.64.12S.01,1.6.01,1.53c0-.01,0-.02.03-.03"/>
          <path class="cls-4" d="M1.17,1.34s0,0,0-.01c0,.01,0,.04,0,.07,0,0,0,.02.01.02h0s.03.03.04.04c0,0,0,.01,0,.02-.05.05-.29.09-.58.09s-.53-.04-.58-.09c0,0,0-.01,0-.02,0,0,.02-.02.04-.04,0,0,0-.01,0-.02.01-.03.01-.06.01-.08,0,0,0,0,0,.01,0,0,0,0,0,0"/>
          <path class="cls-4" d="M.32,1.25s0,.03,0,.03c0,.04.16.07.34.07s.32-.03.32-.07h0"/>
          <polyline class="cls-4" points=".32 1.24 .32 1.24 .32 1.24 .32 1.25"/>
          <path class="cls-4" d="M.32,1.22s0,0,0,0c0,0,0,0,0,.01"/>
          <path class="cls-4" d="M.32,1.22s0,0,0,0c0,0,0,0,0,0Z"/>
          <path class="cls-4" d="M.14,1.35s0,0,0,0c0,0,0-.01,0-.02,0,0,0,0,0,0,0-.03.07-.08.19-.1,0,0,0,0,0,0,0,0,0,0,0,0,0,0,0,0,0,0s0,0,0,0"/>
          <path class="cls-4" d="M.98,1.23s0,0,0,0c.12.02.19.06.19.09,0,0,0,0,0,0t0,0s0,0,0,.01c0,0,0,0,0,0"/>
          <path class="cls-4" d="M1.17,1.35s-.05.03-.1.04h0c-.06.02-.14.03-.23.04h0c-.06,0-.12,0-.19,0s-.13,0-.19,0h0c-.09,0-.17-.02-.23-.04-.05-.01-.08-.03-.1-.04.02.01.05.03.1.04.06.01.14.03.23.03h0c.06,0,.12,0,.19,0s.13,0,.19,0h0c.09,0,.17-.02.23-.03h0s.08-.03.1-.04Z"/>
          <polyline class="cls-5" points=".01 1.53 .04 1.5 .04 1.5 .05 1.49"/>
          <path class="cls-5" d="M.89.02h.12v.29s-.05,0-.08.01c-.08.01-.17.02-.28.02-.11,0-.2,0-.29-.02-.03,0-.05,0-.08-.01V.02h.12v.1S.5.11.5.11V.02h.1v.1s.09,0,.09,0V.01h.1v.1s.1,0,.1,0V.02Z"/>
          <line class="cls-5" x1=".4" y1=".02" x2=".4" y2="0"/>
          <line class="cls-5" x1=".4" y1=".13" x2=".4" y2=".11"/>
          <line class="cls-5" x1=".89" y1=".02" x2=".89" y2=".01"/>
          <polyline class="cls-6" points=".32 1.25 .32 1.25 .32 1.25 .32 1.24 .32 1.24 .32 1.24 .32 1.22 .32 1.22 .36 .33"/>
          <polyline class="cls-6" points=".99 1.29 .99 1.28 .99 1.27 .99 1.23 .93 .33 .93 .32"/>
        </g>
      </g>
    </g>
  </g>
</svg>